<?xml version="1.0" encoding="UTF-8"?><svg id="uuid-0e9df548-8ba8-4a5b-9d48-27490c904ec6" xmlns="http://www.w3.org/2000/svg" viewBox="0 0 44.38 40.78"><g id="uuid-4bd66050-b72b-4374-a81e-bad534d1dd89"><path d="M44.38,1.93v11.7l-10-3.41,3.22-10.22h4.85c1.07,0,1.93.86,1.93,1.93M33.3,0H4.42l26.08,8.9,2.8-8.9ZM10.39,6.38L0,2.83v8.51l7.76,2.65,2.63-7.61ZM6.28,30.84h9.32c-1.14-3.64-.28-7.78,2.6-10.66,2-1.99,4.65-3.09,7.47-3.09s5.48,1.1,7.48,3.09c2.8,2.8,3.77,6.92,2.62,10.62l.04.04h6.65c1.07,0,1.93-.86,1.93-1.93v-10.93L14.28,7.7,6.28,30.84ZM0,15.68v13.23c0,1.07.86,1.93,1.93,1.93l4.49-12.97L0,15.68ZM31.67,21.65c2.55,2.56,3.2,6.45,1.66,9.67l1.19,1.19,3.45,3.45c.54.54.83,1.25.83,2.01s-.29,1.46-.83,2c-.53.53-1.24.83-2,.83s-1.47-.3-2.01-.83l-4.64-4.64c-1.14.54-2.39.83-3.66.83-2.27,0-4.4-.89-6-2.48-3.31-3.31-3.31-8.7,0-12.01,1.61-1.6,3.74-2.48,6-2.48s4.4.88,6,2.48ZM29.08,24.23c-.91-.91-2.12-1.41-3.42-1.41s-2.5.5-3.41,1.41c-.91.91-1.41,2.13-1.41,3.42s.5,2.51,1.41,3.41c.91.92,2.12,1.41,3.41,1.41s2.51-.5,3.41-1.41c1.88-1.89,1.88-4.95,0-6.83Z" style="fill:#fff;"/></g></svg>