<?xml version="1.0" encoding="UTF-8"?><svg id="uuid-bd088a92-8944-4900-9fa1-8e5b51af0724" xmlns="http://www.w3.org/2000/svg" viewBox="0 0 38.93 44.39"><g id="uuid-9d8c4946-a935-4a62-8f71-9e1be01dce35"><path d="M12.37,15.31c-2.25,2.19-1.57,7.13,1.64,11.32,3.22,4.2,7.81,6.14,10.51,4.53" style="fill:none; stroke:#fff; stroke-linecap:round; stroke-linejoin:round; stroke-width:1.83px;"/><path d="M31.86,40.74c-.1.16-.62.61-2.52,2-3.7,2.74-12.49-2.43-20.14-12.42C1.55,20.34-1.05,10.53,2.45,7.64c1.89-1.55,2.41-1.9,2.58-1.92" style="fill:none; stroke:#fff; stroke-linecap:round; stroke-linejoin:round; stroke-width:1.83px;"/><path d="M29.64,25.76h4.04c.67,0,1.21.54,1.21,1.21v11.63c0,.67-.54,1.21-1.21,1.21h-4.04c-.67,0-1.21-.54-1.21-1.21v-11.63c0-.67.54-1.21,1.21-1.21Z" transform="translate(-13.41 26.02) rotate(-37.46)" style="fill:none; stroke:#fff; stroke-linecap:round; stroke-linejoin:round; stroke-width:1.83px;"/><path d="M10.63.94h4.04c.67,0,1.21.54,1.21,1.21v11.63c0,.67-.54,1.21-1.21,1.21h-4.04c-.67,0-1.21-.54-1.21-1.21V2.16c0-.67.54-1.21,1.21-1.21Z" transform="translate(-2.24 9.34) rotate(-37.46)" style="fill:none; stroke:#fff; stroke-linecap:round; stroke-linejoin:round; stroke-width:1.83px;"/></g></svg>