<?xml version="1.0" encoding="UTF-8"?><svg id="uuid-3a71fcf6-9638-4416-8ae6-9d153551e7cc" xmlns="http://www.w3.org/2000/svg" viewBox="0 0 44.38 33.26"><g id="uuid-cecb5488-1b96-4018-9320-c2ec39ecabd7"><path d="M39.27,0H5.11C2.29,0,0,2.29,0,5.11v23.04c0,2.82,2.29,5.11,5.11,5.11h34.16c2.82,0,5.11-2.29,5.11-5.11V5.11c0-2.82-2.29-5.11-5.11-5.11M27.14,16.63l15.22-13.12c.25.48.39,1.02.39,1.6v23.04c0,.58-.14,1.12-.39,1.6l-15.22-13.12ZM39.27,1.63c.76,0,1.45.24,2.02.65l-19.1,16.47L3.09,2.28c.57-.41,1.27-.65,2.02-.65h34.16ZM2.02,29.75c-.25-.48-.39-1.02-.39-1.6V5.11c0-.58.14-1.12.39-1.6l15.22,13.12L2.02,29.75ZM5.11,31.63c-.75,0-1.45-.24-2.02-.65l15.4-13.27,3.17,2.74c.15.13.34.2.53.2s.38-.07.53-.2l3.17-2.74,15.4,13.27c-.57.41-1.27.65-2.02.65H5.11Z" style="fill:#fff;"/></g></svg>