<?xml version="1.0" encoding="UTF-8"?><svg id="uuid-f95e8bc0-8099-47e5-ae29-7940b4fd5d54" xmlns="http://www.w3.org/2000/svg" viewBox="0 0 25.7 44.38"><g id="uuid-dd4946f9-5579-4817-bcf9-e3705eaef16e"><path d="M21.16,0H4.53C2.03,0,0,2.03,0,4.53v35.32c0,2.5,2.03,4.53,4.53,4.53h16.63c2.5,0,4.53-2.03,4.53-4.53V4.53c0-2.5-2.03-4.53-4.53-4.53M4.53,2.34h16.63c1.21,0,2.2.99,2.2,2.2v2.48H2.34v-2.48c0-1.21.99-2.2,2.2-2.2ZM2.34,9.34h21.02v25.7H2.34V9.34ZM21.16,42.05H4.53c-1.21,0-2.2-.99-2.2-2.2v-2.48h21.02v2.48c0,1.21-.99,2.2-2.2,2.2ZM18.69,39.71c0,.64-.52,1.17-1.17,1.17h-9.34c-.64,0-1.17-.52-1.17-1.17s.52-1.17,1.17-1.17h9.34c.64,0,1.17.52,1.17,1.17ZM12.02,5.5c-.22-.22-.34-.51-.34-.83,0-.16.03-.31.09-.45.06-.14.14-.26.25-.37.11-.11.23-.19.37-.25.3-.12.61-.12.9,0,.14.06.26.14.37.25.22.22.34.51.34.83s-.12.61-.34.83c-.22.22-.51.34-.83.34s-.61-.12-.83-.34ZM15.14,5.5c-.22-.22-.34-.51-.34-.83,0-.16.03-.31.09-.45.06-.14.14-.26.25-.37.11-.11.23-.19.37-.25.44-.19.95-.08,1.28.25.11.11.19.23.25.37s.09.3.09.45c0,.31-.12.61-.34.83-.22.22-.51.34-.82.34s-.61-.12-.83-.34ZM8.91,5.5c-.22-.22-.34-.51-.34-.83,0-.16.03-.31.09-.45.06-.14.14-.26.25-.37.11-.11.23-.19.37-.25.3-.12.61-.12.9,0,.14.06.26.14.37.25.11.11.19.23.25.37.06.14.09.3.09.45,0,.31-.12.61-.34.83-.11.11-.23.19-.37.25-.14.06-.3.09-.45.09-.31,0-.61-.12-.83-.34Z" style="fill:#fff;"/></g></svg>