<?xml version="1.0" encoding="UTF-8"?><svg id="uuid-acba26b2-2491-44b8-a32f-c0b4695908ad" xmlns="http://www.w3.org/2000/svg" viewBox="0 0 20.37 14.43"><g id="uuid-4c6941be-1a0f-4847-bb9e-87c30f4c5ade"><path d="M19.1,0H1.27C.57,0,0,.57,0,1.27v11.88c0,.7.57,1.27,1.27,1.27h17.83c.7,0,1.27-.57,1.27-1.27V1.27c0-.7-.57-1.27-1.27-1.27M19.45,1.64l-7.11,6.91c-.59.58-1.38.87-2.16.87s-1.56-.29-2.16-.87L.92,1.64c-.2-.2-.21-.52-.01-.72.2-.2.52-.21.72-.01l7.11,6.91c.8.77,2.09.77,2.89,0L18.74.91c.2-.2.52-.19.72.01.2.2.19.52-.01.72Z" style="fill:#fff;"/></g></svg>