<?xml version="1.0" encoding="UTF-8"?><svg id="uuid-5a76dde8-f101-4c6c-bbc2-eabfd6e447a7" xmlns="http://www.w3.org/2000/svg" viewBox="0 0 20.37 20.37"><g id="uuid-4ee71c80-5236-40a8-83a7-8e2dfc5118bf"><path d="M15.8,20.37c-1.14,0-5.28-.39-10.34-5.46C.39,9.85,0,5.72,0,4.57,0,2.69,2.42,0,3.04,0h1.38c.19,0,.36.11.43.28l2.03,4.79c.08.2.02.42-.15.55-1.91,1.44-2.54,1.88-2.55,2.6,0,1.56,6.42,7.98,7.97,7.98.73,0,1.22-.63,2.66-2.55.13-.17.36-.23.55-.15l4.74,2.02c.17.07.28.24.28.43v1.38c0,.62-2.69,3.04-4.57,3.04" style="fill:#fff;"/></g></svg>