<?xml version="1.0" encoding="UTF-8"?><svg id="uuid-20ceefef-9d5c-463a-b146-7d9f447de6c8" xmlns="http://www.w3.org/2000/svg" viewBox="0 0 127.02 110.03"><g id="uuid-3c858b40-9304-4247-ab4f-a9a50c3b3dcb"><path d="M58.66,110.03H0v-45.17c0-16.63,3.46-29.75,10.38-39.37C17.3,15.87,29.17,7.37,45.98,0l12.67,24c-10.34,4.85-17.48,9.69-21.44,14.5-3.96,4.81-6.16,10.5-6.61,17.06h28.05v54.48ZM127.02,110.03h-58.66v-45.17c0-16.63,3.46-29.75,10.38-39.37,6.92-9.62,18.79-18.11,35.6-25.49l12.67,24c-10.34,4.85-17.49,9.69-21.44,14.5-3.96,4.81-6.16,10.5-6.61,17.06h28.05v54.48Z" style="fill:#a6cbc5;"/></g></svg>