<?xml version="1.0" encoding="UTF-8"?><svg id="uuid-8ff4373b-b8a6-4eb6-94ec-2fa5a6835721" xmlns="http://www.w3.org/2000/svg" viewBox="0 0 127.02 110.03"><g id="uuid-d921882d-d679-4c01-b8c5-dd0f1bea71ef"><path d="M0,0h58.66v45.17c0,16.63-3.46,29.75-10.38,39.37-6.92,9.62-18.79,18.11-35.6,25.49L0,86.03c10.34-4.85,17.49-9.69,21.44-14.5,3.96-4.81,6.16-10.5,6.61-17.06H0V0ZM68.37,0h58.66v45.17c0,16.63-3.46,29.75-10.38,39.37-6.92,9.62-18.79,18.11-35.6,25.49l-12.67-24c10.34-4.85,17.48-9.69,21.44-14.5,3.96-4.81,6.16-10.5,6.61-17.06h-28.05V0Z" style="fill:#a6cbc5;"/></g></svg>