<?xml version="1.0" encoding="UTF-8"?><svg id="uuid-1ab95ad2-f243-4bbb-9eec-f13eefc79b62" xmlns="http://www.w3.org/2000/svg" xmlns:xlink="http://www.w3.org/1999/xlink" viewBox="0 0 36.89 37"><defs><clipPath id="uuid-ea03bf73-4e7b-4c52-81a8-9bf1b0e3bcc2"><rect width="36.89" height="36.99" style="fill:none;"/></clipPath></defs><g id="uuid-a2fcda07-2238-463b-bb66-1ecaa4b5e447"><path d="M23.88,0H0v35.89h17.15v-2.22H2.22V2.22h19.5v6.09c0,.61.5,1.11,1.11,1.11h5.54v5.19h2.22v-7.51L23.88,0" style="fill:#fff;"/><rect x="4.75" y="9.16" width="14.89" height="1.52" style="fill:#fff;"/><rect x="4.75" y="14.18" width="14.89" height="1.52" style="fill:#fff;"/><path d="M16.91,19.19H4.75v1.52h10.9c.37-.54.79-1.05,1.26-1.52" style="fill:#fff;"/><path d="M4.75,24.2v1.52h9.56c.04-.52.12-1.02.24-1.52H4.75" style="fill:#fff;"/><path d="M4.75,29.22v1.52h10.39c-.21-.49-.39-.99-.53-1.52H4.75" style="fill:#fff;"/><g style="clip-path:url(#uuid-ea03bf73-4e7b-4c52-81a8-9bf1b0e3bcc2);"><path d="M26.47,16.15c-2.86,0-5.46,1.16-7.35,3.04-.47.46-.89.97-1.26,1.52-.72,1.05-1.24,2.23-1.54,3.5-.12.49-.2,1-.24,1.51-.02.28-.04.57-.04.86,0,.91.12,1.8.34,2.64.14.52.32,1.03.53,1.52,1.61,3.68,5.29,6.27,9.56,6.27,5.75,0,10.42-4.68,10.42-10.42s-4.68-10.42-10.42-10.42M31.32,32.23h-9.63v-1.82c.75-.09,1.13-.74,1.13-1.95v-.76h-1.46v-1.66h1.46v-2.24l.12-1.4c.28-1.44,1.63-2.15,4.06-2.15,1.66,0,2.78.22,3.36.67.58.45.87,1.32.87,2.62v.58h-2.26v-.25c0-.71-.12-1.17-.34-1.38-.22-.21-.72-.31-1.48-.31-.87,0-1.43.12-1.69.36-.26.24-.39.76-.39,1.56v1.95h3.21v1.66h-3.21v1.02s-.11.84-.11.84c-.1.28-.34.55-.73.79v.06l7.1-.04v1.87Z" style="fill:#f16e3a;"/></g></g></svg>