<?xml version="1.0" encoding="UTF-8"?><svg id="uuid-6df588aa-e376-423f-8610-2a36381f2b08" xmlns="http://www.w3.org/2000/svg" xmlns:xlink="http://www.w3.org/1999/xlink" viewBox="0 0 198.43 198.42"><defs><clipPath id="uuid-b7168f24-03b4-46e6-a227-0e7a4979f294"><rect x="4.91" y="4.91" width="188.59" height="188.58" style="fill:none;"/></clipPath><clipPath id="uuid-de9b1156-d295-4268-9c33-ed94dab829f4"><rect x="4.91" y="4.91" width="188.59" height="188.59" style="fill:none;"/></clipPath><clipPath id="uuid-06e7359b-3cb3-400f-8714-2eaf1c548a45"><path d="M193.41,99.21c0,52.01-42.21,94.21-94.21,94.21S4.98,151.22,4.98,99.21,47.19,5,99.2,5s94.21,42.21,94.21,94.21Z" style="clip-rule:evenodd; fill:none;"/></clipPath><clipPath id="uuid-1894e8ee-7fa9-44b3-8b4e-56d5d010e732"><rect x="-58.26" y="-14.26" width="1133.86" height="3381.73" style="fill:none;"/></clipPath><clipPath id="uuid-d6a60b58-cdee-4358-9f7e-f6d3509d3341"><rect x="-58.24" y="-14.26" width="1133.85" height="3381.72" style="fill:none;"/></clipPath><clipPath id="uuid-425009d0-2a45-4cf9-a2bc-a56211f1b268"><rect x="4.91" y="4.91" width="188.59" height="188.59" style="fill:none;"/></clipPath><clipPath id="uuid-e52a2679-2304-4608-8a2d-234e19ddeb50"><path d="M193.41,99.21c0,52.01-42.21,94.21-94.21,94.21S4.98,151.22,4.98,99.21,47.19,5,99.2,5s94.21,42.21,94.21,94.21Z" style="clip-rule:evenodd; fill:none;"/></clipPath><clipPath id="uuid-d547bbbd-f902-4ce0-9a41-12bf8614ad4c"><rect x="-58.26" y="-14.26" width="1133.86" height="3381.73" style="fill:none;"/></clipPath><clipPath id="uuid-72f0eaea-d54c-4cca-a035-148739504dd0"><rect x="-58.24" y="-14.26" width="1133.85" height="3381.72" style="fill:none;"/></clipPath><clipPath id="uuid-83cd37d7-204e-49a6-8ee2-d42bd0308042"><path d="M198.43,99.21c0,54.76-44.45,99.21-99.21,99.21S0,153.98,0,99.21,44.45,0,99.21,0s99.21,44.45,99.21,99.21Z" style="clip-rule:evenodd; fill:none;"/></clipPath><clipPath id="uuid-9d294483-7097-4295-8411-c7cab1fd5756"><rect x="-58.26" y="-14.26" width="1133.86" height="3381.73" style="fill:none;"/></clipPath><clipPath id="uuid-6d8556cd-2d15-4046-9fce-0826685a390c"><rect x="-58.24" y="-14.26" width="1133.85" height="3381.72" style="fill:none;"/></clipPath></defs><g id="uuid-d5445ce7-b73d-440a-aa72-42c046861bfe"><g style="clip-path:url(#uuid-b7168f24-03b4-46e6-a227-0e7a4979f294);"><g style="clip-path:url(#uuid-de9b1156-d295-4268-9c33-ed94dab829f4);"><g style="clip-path:url(#uuid-06e7359b-3cb3-400f-8714-2eaf1c548a45);"><g style="clip-path:url(#uuid-1894e8ee-7fa9-44b3-8b4e-56d5d010e732);"><g style="clip-path:url(#uuid-d6a60b58-cdee-4358-9f7e-f6d3509d3341);"><path d="M193.5,99.21c0-52.08-42.22-94.29-94.3-94.29S4.91,47.13,4.91,99.21c0,7.06.78,13.94,2.25,20.55h184.08c1.47-6.62,2.25-13.49,2.25-20.55" style="fill:#4ca799;"/><path d="M99.2,193.51c45.02,0,82.66-31.55,92.04-73.74H7.16c9.38,42.19,47.03,73.74,92.04,73.74" style="fill:#081922;"/></g></g></g></g></g><g style="clip-path:url(#uuid-425009d0-2a45-4cf9-a2bc-a56211f1b268);"><g style="clip-path:url(#uuid-e52a2679-2304-4608-8a2d-234e19ddeb50);"><g style="clip-path:url(#uuid-d547bbbd-f902-4ce0-9a41-12bf8614ad4c);"><g style="clip-path:url(#uuid-72f0eaea-d54c-4cca-a035-148739504dd0);"><rect x="66.99" y="100.12" width="8.74" height="8.74" style="fill:#081922;"/><rect x="124.19" y="100.12" width="8.74" height="8.74" style="fill:#081922;"/><path d="M53.88,56.43c-.07-.07-.14-.13-.21-.2-1.66-1.73-2.74-3.8-3.17-5.99-.45-2.29-.22-4.72.74-7.05.96-2.33,2.51-4.2,4.44-5.49,1.91-1.28,4.23-1.98,6.78-1.98h22.16v42.02l8.98,8.99V31.23c0-2.48-2.01-4.49-4.49-4.49h-26.65c-4.32,0-8.36,1.25-11.76,3.52-3.38,2.26-6.08,5.51-7.74,9.53-1.66,4.01-2.06,8.21-1.27,12.18.77,3.87,2.65,7.51,5.58,10.54.08.09.16.19.26.28l17.47,17.47-28.6,28.6h12.71l22.25-22.25,22.25,22.25h12.71l22.25-22.25,22.24,22.25h12.71l-28.6-28.6,17.47-17.47c.09-.09.17-.18.26-.28,2.93-3.03,4.81-6.67,5.58-10.54.79-3.97.4-8.17-1.27-12.18-1.66-4.02-4.36-7.27-7.74-9.53-3.4-2.27-7.44-3.52-11.76-3.52h-26.65c-2.48,0-4.49,2.01-4.49,4.49v55.5l8.98-8.99v-42.02h22.16c2.54,0,4.87.7,6.78,1.98,1.92,1.29,3.47,3.17,4.44,5.49.96,2.33,1.19,4.76.74,7.05-.43,2.19-1.51,4.25-3.17,5.99-.07.06-.14.13-.21.2-15.35,15.36-30.71,30.72-46.07,46.07l-46.08-46.07" style="fill:#fff;"/><path d="M31.89,147.06v-13.7h4.44c.95,0,1.78.15,2.49.44s1.26.75,1.65,1.36.59,1.4.59,2.37-.2,1.73-.61,2.36c-.41.63-1,1.13-1.78,1.5l3.07,5.67h-2.27l-2.78-5.34h-2.86v5.34h-1.96ZM33.85,140.06h2.47c.93,0,1.64-.23,2.11-.67.47-.45.71-1.07.71-1.85s-.24-1.41-.71-1.85c-.47-.44-1.18-.66-2.11-.66h-2.47v5.03Z" style="fill:#fff;"/><path d="M49.65,147.34c-1.3,0-2.47-.29-3.48-.88-1.02-.58-1.82-1.41-2.4-2.48-.58-1.07-.87-2.32-.87-3.77s.29-2.71.87-3.77c.58-1.07,1.38-1.89,2.4-2.47,1.02-.58,2.18-.88,3.48-.88s2.46.29,3.48.88c1.02.58,1.82,1.41,2.4,2.47.58,1.07.87,2.32.87,3.77s-.29,2.7-.87,3.77c-.58,1.07-1.38,1.89-2.4,2.48s-2.18.88-3.48.88ZM49.65,145.54c1.05,0,1.93-.24,2.63-.71.7-.47,1.23-1.11,1.59-1.92.35-.81.53-1.7.53-2.69s-.18-1.89-.53-2.7c-.36-.81-.89-1.44-1.59-1.92-.7-.47-1.58-.71-2.63-.71s-1.93.24-2.63.71c-.7.47-1.23,1.11-1.59,1.92-.36.81-.53,1.7-.53,2.7s.18,1.89.53,2.69c.36.81.89,1.44,1.59,1.92.7.47,1.58.71,2.63.71Z" style="fill:#fff;"/><path d="M64.72,147.34c-1.3,0-2.47-.29-3.48-.88-1.02-.58-1.82-1.41-2.4-2.48-.58-1.07-.87-2.32-.87-3.77s.29-2.71.87-3.77c.58-1.07,1.38-1.89,2.4-2.47,1.02-.58,2.18-.88,3.48-.88s2.46.29,3.48.88c1.02.58,1.82,1.41,2.4,2.47.58,1.07.87,2.32.87,3.77s-.29,2.7-.87,3.77c-.58,1.07-1.38,1.89-2.4,2.48s-2.18.88-3.48.88ZM64.72,145.54c1.05,0,1.93-.24,2.63-.71.7-.47,1.23-1.11,1.59-1.92.35-.81.53-1.7.53-2.69s-.18-1.89-.53-2.7c-.36-.81-.89-1.44-1.59-1.92-.7-.47-1.58-.71-2.63-.71s-1.93.24-2.63.71c-.7.47-1.23,1.11-1.59,1.92-.36.81-.53,1.7-.53,2.7s.18,1.89.53,2.69c.36.81.89,1.44,1.59,1.92.7.47,1.58.71,2.63.71Z" style="fill:#fff;"/><path d="M73.82,147.06v-13.7h8.35v1.68h-6.5v4.01h5.01v1.68h-5.01v6.32h-1.86Z" style="fill:#fff;"/><path d="M88.45,147.06v-13.7h4.44c.95,0,1.78.15,2.49.44s1.26.75,1.65,1.36.59,1.4.59,2.37-.2,1.73-.61,2.36c-.41.63-1,1.13-1.78,1.5l3.07,5.67h-2.27l-2.78-5.34h-2.86v5.34h-1.96ZM90.41,140.06h2.47c.93,0,1.64-.23,2.11-.67.47-.45.71-1.07.71-1.85s-.24-1.41-.71-1.85c-.47-.44-1.18-.66-2.11-.66h-2.47v5.03Z" style="fill:#fff;"/><path d="M100.25,147.06v-13.7h8.35v1.68h-6.5v4.01h5.17v1.68h-5.17v4.64h6.67v1.68h-8.53Z" style="fill:#fff;"/><path d="M115,147.34c-.57,0-1.13-.04-1.7-.13-.57-.08-1.09-.19-1.57-.33-.48-.13-.88-.28-1.2-.43l.25-1.98c.35.17.78.35,1.28.53s1.04.34,1.62.46c.58.12,1.17.19,1.76.19.88,0,1.58-.16,2.1-.48.52-.32.78-.83.78-1.51,0-.52-.13-.94-.39-1.27-.26-.33-.65-.61-1.18-.85-.53-.23-1.18-.47-1.97-.7-.75-.22-1.44-.48-2.07-.79-.63-.3-1.14-.71-1.52-1.22-.38-.51-.57-1.19-.57-2.04,0-.72.19-1.36.56-1.92s.93-.99,1.65-1.31c.73-.31,1.62-.47,2.68-.47.9,0,1.73.1,2.48.29.75.2,1.37.41,1.86.65l-.2,1.98c-.74-.44-1.45-.76-2.13-.95-.67-.19-1.37-.28-2.1-.28-.8,0-1.47.15-1.99.45-.52.3-.79.79-.79,1.47,0,.46.12.83.35,1.12.23.29.58.54,1.05.74.46.21,1.04.41,1.73.62.95.29,1.77.61,2.46.98.68.37,1.21.82,1.57,1.36s.55,1.21.55,2c0,.59-.11,1.12-.33,1.58s-.55.87-1,1.2c-.44.33-1,.59-1.67.76-.67.18-1.45.26-2.34.26Z" style="fill:#fff;"/><path d="M125.23,147.06v-12.01h-3.99v-1.68h9.84v1.68h-3.99v12.01h-1.86Z" style="fill:#fff;"/><path d="M138.44,147.34c-1.3,0-2.47-.29-3.48-.88-1.02-.58-1.82-1.41-2.4-2.48-.58-1.07-.87-2.32-.87-3.77s.29-2.71.87-3.77c.58-1.07,1.38-1.89,2.4-2.47,1.02-.58,2.18-.88,3.48-.88s2.46.29,3.48.88c1.02.58,1.82,1.41,2.4,2.47.58,1.07.87,2.32.87,3.77s-.29,2.7-.87,3.77c-.58,1.07-1.38,1.89-2.4,2.48s-2.18.88-3.48.88ZM138.44,145.54c1.05,0,1.93-.24,2.63-.71.7-.47,1.23-1.11,1.59-1.92.35-.81.53-1.7.53-2.69s-.18-1.89-.53-2.7c-.36-.81-.89-1.44-1.59-1.92-.7-.47-1.58-.71-2.63-.71s-1.93.24-2.63.71c-.7.47-1.23,1.11-1.59,1.92-.36.81-.53,1.7-.53,2.7s.18,1.89.53,2.69c.36.81.89,1.44,1.59,1.92.7.47,1.58.71,2.63.71Z" style="fill:#fff;"/><path d="M147.54,147.06v-13.7h4.44c.95,0,1.78.15,2.49.44s1.26.75,1.65,1.36.59,1.4.59,2.37-.2,1.73-.61,2.36c-.41.63-1,1.13-1.78,1.5l3.07,5.67h-2.27l-2.78-5.34h-2.86v5.34h-1.96ZM149.49,140.06h2.47c.93,0,1.64-.23,2.11-.67.47-.45.71-1.07.71-1.85s-.24-1.41-.71-1.85c-.47-.44-1.18-.66-2.11-.66h-2.47v5.03Z" style="fill:#fff;"/><path d="M159.33,147.06v-13.7h8.35v1.68h-6.5v4.01h5.17v1.68h-5.17v4.64h6.67v1.68h-8.53Z" style="fill:#fff;"/><path d="M75.23,164.05c-.71,0-1.34-.16-1.91-.49-.57-.33-1.01-.79-1.34-1.38-.33-.6-.49-1.3-.49-2.11s.17-1.5.51-2.1.81-1.05,1.4-1.38c.59-.33,1.27-.49,2.04-.49.41,0,.8.04,1.18.13s.7.19.97.31l-.1.91c-.3-.12-.61-.21-.95-.29-.33-.08-.69-.11-1.07-.11-.65,0-1.19.14-1.61.41-.42.27-.73.64-.94,1.09-.2.46-.31.97-.31,1.53s.1,1.1.31,1.56c.21.46.53.82.96,1.08.43.26.98.4,1.64.4.16,0,.37-.01.61-.04.24-.03.47-.08.67-.16v-1.9h-1.2v-.94h2.24v3.41c-.3.16-.67.3-1.11.41-.44.11-.94.17-1.5.17Z" style="fill:#4ca799;"/><path d="M80.08,163.9v-7.64h1.04v6.71h3.51v.94h-4.54Z" style="fill:#4ca799;"/><path d="M88.69,157.27h.31l-2.35,6.63h-1.09l2.74-7.64h1.09l2.74,7.64h-1.09l-2.35-6.63ZM90.48,161.84h-3.28v-.94h3.28v.94Z" style="fill:#4ca799;"/><path d="M96.08,164.05c-.32,0-.63-.02-.95-.07-.32-.05-.61-.11-.88-.18s-.49-.15-.67-.24l.14-1.1c.2.09.43.19.71.29.28.1.58.19.9.26.32.07.65.1.98.1.49,0,.88-.09,1.17-.27.29-.18.43-.46.43-.84,0-.29-.07-.52-.22-.71-.15-.18-.36-.34-.66-.47-.29-.13-.66-.26-1.1-.39-.42-.12-.8-.27-1.16-.44s-.64-.4-.85-.68c-.21-.29-.32-.67-.32-1.14,0-.4.1-.76.31-1.07.21-.31.52-.55.92-.73.41-.17.9-.26,1.49-.26.5,0,.96.05,1.38.16.42.11.77.23,1.04.36l-.11,1.1c-.42-.25-.81-.42-1.19-.53-.38-.11-.77-.16-1.17-.16-.45,0-.82.08-1.11.25s-.44.44-.44.82c0,.25.07.46.2.62.13.16.33.3.58.42s.58.23.97.35c.53.16.99.34,1.37.55s.68.46.88.76c.2.3.31.67.31,1.12,0,.33-.06.62-.19.88-.12.26-.31.49-.56.67-.25.19-.56.33-.93.43s-.81.15-1.31.15Z" style="fill:#4ca799;"/><path d="M104.37,164.05c-.71,0-1.34-.16-1.91-.49-.57-.33-1.01-.79-1.34-1.38-.33-.6-.49-1.3-.49-2.11s.17-1.5.51-2.1.81-1.05,1.4-1.38c.59-.33,1.27-.49,2.04-.49.41,0,.8.04,1.18.13s.7.19.97.31l-.1.91c-.3-.12-.61-.21-.95-.29-.33-.08-.69-.11-1.07-.11-.65,0-1.19.14-1.61.41-.42.27-.73.64-.94,1.09-.2.46-.31.97-.31,1.53s.1,1.1.31,1.56c.21.46.53.82.96,1.08.43.26.98.4,1.64.4.16,0,.37-.01.61-.04.24-.03.47-.08.67-.16v-1.9h-1.2v-.94h2.24v3.41c-.3.16-.67.3-1.11.41-.44.11-.94.17-1.5.17Z" style="fill:#4ca799;"/><path d="M112.55,164.05c-.73,0-1.38-.16-1.94-.49-.57-.33-1.01-.79-1.34-1.38-.32-.6-.49-1.3-.49-2.1s.16-1.51.49-2.1c.32-.6.77-1.06,1.34-1.38s1.22-.49,1.94-.49,1.38.16,1.94.49,1.01.79,1.34,1.38c.32.6.49,1.3.49,2.1s-.16,1.51-.49,2.1c-.32.6-.77,1.06-1.34,1.38-.57.33-1.22.49-1.94.49ZM112.55,163.05c.59,0,1.08-.13,1.47-.4.39-.26.69-.62.89-1.07.2-.45.3-.95.3-1.5s-.1-1.05-.3-1.5-.49-.81-.89-1.07c-.39-.26-.88-.4-1.47-.4s-1.08.13-1.47.4c-.39.26-.69.62-.89,1.07s-.3.95-.3,1.5.1,1.05.3,1.5c.2.45.49.81.89,1.07.39.26.88.4,1.47.4Z" style="fill:#4ca799;"/><path d="M119.7,163.9l-2.16-7.64h1.09l1.62,6.3,1.87-6.15h1.09l1.87,6.15,1.62-6.3h1.09l-2.16,7.64h-1.1l-1.86-6.15-1.86,6.15h-1.1Z" style="fill:#4ca799;"/></g></g></g></g><g style="clip-path:url(#uuid-83cd37d7-204e-49a6-8ee2-d42bd0308042);"><g style="clip-path:url(#uuid-9d294483-7097-4295-8411-c7cab1fd5756);"><g style="clip-path:url(#uuid-6d8556cd-2d15-4046-9fce-0826685a390c);"><path d="M198.43,99.21c0,54.76-44.45,99.21-99.21,99.21S0,153.98,0,99.21,44.45,0,99.21,0s99.21,44.45,99.21,99.21Z" style="fill:none; stroke:#fff; stroke-miterlimit:10; stroke-width:10px;"/></g></g></g></g></svg>