<?xml version="1.0" encoding="UTF-8"?><svg id="uuid-3bab7afd-b1e5-44ec-ba30-da53e55b5a9b" xmlns="http://www.w3.org/2000/svg" viewBox="0 0 95.64 94.09"><g id="uuid-b790d7a3-f380-4743-b5da-912a4043ee3e"><rect x=".01" y=".01" width="95.61" height="94.06"/><polyline points="19.75 73.6 19.76 20.24 75.92 20.25 75.91 73.74" style="fill:none; stroke:#fff; stroke-linecap:round; stroke-linejoin:round; stroke-width:1.44px;"/><line x1="70.16" y1="20.26" x2="75.76" y2="30.93" style="fill:none; stroke:#fff; stroke-linecap:round; stroke-linejoin:round; stroke-width:1.44px;"/><path d="M42.16,30.92s2.42-2.12,5.75-2.12c3.33,0,5.45,2.13,5.45,2.13" style="fill:none; stroke:#fff; stroke-linecap:round; stroke-linejoin:round; stroke-width:1.44px;"/><path d="M30.96,30.92s2.42-2.12,5.75-2.12c3.33,0,5.45,2.13,5.45,2.13" style="fill:none; stroke:#fff; stroke-linecap:round; stroke-linejoin:round; stroke-width:1.44px;"/><line x1="19.76" y1="30.92" x2="42.15" y2="73.61" style="fill:none; stroke:#fff; stroke-linecap:round; stroke-linejoin:round; stroke-width:1.44px;"/><path d="M19.76,30.92s2.42-2.12,5.75-2.12c3.33,0,5.45,2.13,5.45,2.13" style="fill:none; stroke:#fff; stroke-linecap:round; stroke-linejoin:round; stroke-width:1.44px;"/><path d="M53.36,30.93s2.42-2.12,5.75-2.12c3.33,0,5.45,2.13,5.45,2.13" style="fill:none; stroke:#fff; stroke-linecap:round; stroke-linejoin:round; stroke-width:1.44px;"/><path d="M64.56,30.93s2.42-2.12,5.75-2.12c3.33,0,5.45,2.13,5.45,2.13" style="fill:none; stroke:#fff; stroke-linecap:round; stroke-linejoin:round; stroke-width:1.44px;"/><path d="M64.55,73.62s2.42-2.12,5.75-2.12c3.33,0,5.45,2.13,5.45,2.13" style="fill:none; stroke:#fff; stroke-linecap:round; stroke-linejoin:round; stroke-width:1.44px;"/><path d="M53.35,73.61s2.42-2.12,5.75-2.12c3.33,0,5.45,2.13,5.45,2.13" style="fill:none; stroke:#fff; stroke-linecap:round; stroke-linejoin:round; stroke-width:1.44px;"/><path d="M42.15,73.61s2.42-2.12,5.75-2.12c3.33,0,5.45,2.13,5.45,2.13" style="fill:none; stroke:#fff; stroke-linecap:round; stroke-linejoin:round; stroke-width:1.44px;"/><line x1="19.75" y1="52.26" x2="30.95" y2="73.61" style="fill:none; stroke:#fff; stroke-linecap:round; stroke-linejoin:round; stroke-width:1.44px;"/><path d="M25.35,62.93s2.42-2.12,5.75-2.12c3.33,0,5.45,2.13,5.45,2.13" style="fill:none; stroke:#fff; stroke-linecap:round; stroke-linejoin:round; stroke-width:1.44px;"/><path d="M19.75,52.26s2.42-2.12,5.75-2.12c3.33,0,5.45,2.13,5.45,2.13" style="fill:none; stroke:#fff; stroke-linecap:round; stroke-linejoin:round; stroke-width:1.44px;"/><path d="M19.91,39.46c3.33,0,5.45,2.13,5.45,2.13" style="fill:none; stroke:#fff; stroke-linecap:round; stroke-linejoin:round; stroke-width:1.44px;"/><path d="M30.95,73.61s2.42-2.12,5.75-2.12c3.33,0,5.45,2.13,5.45,2.13" style="fill:none; stroke:#fff; stroke-linecap:round; stroke-linejoin:round; stroke-width:1.44px;"/><path d="M19.91,60.81c3.33,0,5.45,2.13,5.45,2.13" style="fill:none; stroke:#fff; stroke-linecap:round; stroke-linejoin:round; stroke-width:1.44px;"/><path d="M19.75,73.6s2.42-2.12,5.75-2.12c3.33,0,5.45,2.13,5.45,2.13" style="fill:none; stroke:#fff; stroke-linecap:round; stroke-linejoin:round; stroke-width:1.44px;"/><line x1="58.96" y1="20.25" x2="73.03" y2="47.08" style="fill:none; stroke:#fff; stroke-linecap:round; stroke-linejoin:round; stroke-width:1.44px;"/><line x1="72.12" y1="66.69" x2="75.75" y2="73.62" style="fill:none; stroke:#fff; stroke-linecap:round; stroke-linejoin:round; stroke-width:1.44px;"/><line x1="47.76" y1="20.25" x2="53.36" y2="30.93" style="fill:none; stroke:#fff; stroke-linecap:round; stroke-linejoin:round; stroke-width:1.44px;"/><line x1="60.92" y1="66.69" x2="64.55" y2="73.62" style="fill:none; stroke:#fff; stroke-linecap:round; stroke-linejoin:round; stroke-width:1.44px;"/><line x1="36.56" y1="20.24" x2="42.16" y2="30.92" style="fill:none; stroke:#fff; stroke-linecap:round; stroke-linejoin:round; stroke-width:1.44px;"/><line x1="49.72" y1="66.69" x2="53.35" y2="73.61" style="fill:none; stroke:#fff; stroke-linecap:round; stroke-linejoin:round; stroke-width:1.44px;"/><line x1="25.36" y1="20.24" x2="30.96" y2="30.92" style="fill:none; stroke:#fff; stroke-linecap:round; stroke-linejoin:round; stroke-width:1.44px;"/><polyline points="56.3 42.84 53.64 37.87 34.22 37.87 45.9 59.64 65.32 59.64 62.59 54.68" style="fill:none; stroke:#fff; stroke-linecap:round; stroke-linejoin:round; stroke-width:1.44px;"/><polyline points="66.38 54.42 71.26 63.47 43.99 63.46 28.28 34.04 55.56 34.05 61.01 44.31" style="fill:none; stroke:#fff; stroke-linecap:round; stroke-linejoin:round; stroke-width:1.44px;"/><polyline points="39.2 47.15 51.94 51.62 73.27 51.63 47.74 42.98 36.97 42.98" style="fill:none; stroke:#fff; stroke-linecap:round; stroke-linejoin:round; stroke-width:1.44px;"/></g></svg>