<?xml version="1.0" encoding="UTF-8"?><svg id="uuid-3330d6af-ac43-4b6e-ab9f-ac091ea93181" xmlns="http://www.w3.org/2000/svg" viewBox="0 0 95.64 94.09"><g id="uuid-2c01118f-f1a2-4fd7-bef1-2b18c0264f17"><rect x=".01" y=".01" width="95.61" height="94.06"/><line x1="40.44" y1="32.44" x2="62.26" y2="32.44" style="fill:none; stroke:#fff; stroke-linecap:round; stroke-linejoin:round; stroke-width:1.73px;"/><polyline points="62.26 32.44 43.02 69.07 47.26 69.07 62.25 40.51 77.24 69.08 81.47 69.08 62.26 32.44" style="fill:none; stroke:#fff; stroke-linecap:round; stroke-linejoin:round; stroke-width:1.73px;"/><polyline points="67.62 42.68 67.63 27.9 56.89 27.9 56.88 32.44" style="fill:none; stroke:#fff; stroke-linecap:round; stroke-linejoin:round; stroke-width:1.73px;"/><line x1="30.3" y1="38.39" x2="14.19" y2="69.06" style="fill:none; stroke:#fff; stroke-linecap:round; stroke-linejoin:round; stroke-width:1.73px;"/><line x1="78.63" y1="69.08" x2="54.37" y2="69.07" style="fill:none; stroke:#fff; stroke-linecap:round; stroke-linejoin:round; stroke-width:1.73px;"/><path d="M43.02,69.07s-2.08-1.82-4.94-1.82c-2.86,0-4.67,1.82-4.67,1.82" style="fill:none; stroke:#fff; stroke-linecap:round; stroke-linejoin:round; stroke-width:1.73px;"/><path d="M33.41,69.07s-2.08-1.82-4.94-1.82c-2.86,0-4.67,1.82-4.67,1.82" style="fill:none; stroke:#fff; stroke-linecap:round; stroke-linejoin:round; stroke-width:1.73px;"/><path d="M23.8,69.06s-2.08-1.82-4.94-1.82c-2.86,0-4.67,1.82-4.67,1.82" style="fill:none; stroke:#fff; stroke-linecap:round; stroke-linejoin:round; stroke-width:1.73px;"/><path d="M47.83,59.91s-2.08-1.82-4.94-1.82c-2.86,0-4.67,1.82-4.67,1.82" style="fill:none; stroke:#fff; stroke-linecap:round; stroke-linejoin:round; stroke-width:1.73px;"/><path d="M38.22,59.91s-2.08-1.82-4.94-1.82c-2.86,0-4.67,1.82-4.67,1.82" style="fill:none; stroke:#fff; stroke-linecap:round; stroke-linejoin:round; stroke-width:1.73px;"/><path d="M28.61,59.91s-2.08-1.82-4.94-1.82c-2.86,0-4.67,1.82-4.67,1.82" style="fill:none; stroke:#fff; stroke-linecap:round; stroke-linejoin:round; stroke-width:1.73px;"/><path d="M52.64,50.76s-2.08-1.82-4.94-1.82c-2.86,0-4.67,1.82-4.67,1.82" style="fill:none; stroke:#fff; stroke-linecap:round; stroke-linejoin:round; stroke-width:1.73px;"/><path d="M43.03,50.76s-2.08-1.82-4.94-1.82c-2.86,0-4.67,1.82-4.67,1.82" style="fill:none; stroke:#fff; stroke-linecap:round; stroke-linejoin:round; stroke-width:1.73px;"/><path d="M33.42,50.75s-2.08-1.82-4.94-1.82-4.67,1.82-4.67,1.82" style="fill:none; stroke:#fff; stroke-linecap:round; stroke-linejoin:round; stroke-width:1.73px;"/><path d="M57.45,41.6s-2.08-1.82-4.94-1.82c-2.86,0-4.67,1.82-4.67,1.82" style="fill:none; stroke:#fff; stroke-linecap:round; stroke-linejoin:round; stroke-width:1.73px;"/><path d="M47.84,41.6s-2.08-1.82-4.94-1.82c-2.86,0-4.67,1.82-4.67,1.82" style="fill:none; stroke:#fff; stroke-linecap:round; stroke-linejoin:round; stroke-width:1.73px;"/><path d="M38.23,41.6s-2.08-1.82-4.94-1.82c-2.86,0-4.67,1.82-4.67,1.82" style="fill:none; stroke:#fff; stroke-linecap:round; stroke-linejoin:round; stroke-width:1.73px;"/><line x1="43.04" y1="32.44" x2="23.81" y2="69.06" style="fill:none; stroke:#fff; stroke-linecap:round; stroke-linejoin:round; stroke-width:1.73px;"/><line x1="52.65" y1="32.44" x2="33.41" y2="69.07" style="fill:none; stroke:#fff; stroke-linecap:round; stroke-linejoin:round; stroke-width:1.73px;"/><path d="M34.41,24.95c-2.86,0-4.67,1.82-4.67,1.82l-4.81,9.16s1.82-1.82,4.67-1.82,4.94,1.82,4.94,1.82l4.81-9.16s-2.08-1.82-4.94-1.82Z" style="fill:none; stroke:#fff; stroke-linecap:round; stroke-linejoin:round; stroke-width:1.73px;"/></g></svg>