<?xml version="1.0" encoding="UTF-8"?><svg id="uuid-c3538b94-8daa-4b46-aa4d-6826a710bb25" xmlns="http://www.w3.org/2000/svg" viewBox="0 0 95.64 94.09"><g id="uuid-66d45316-ebee-4465-9f97-7945d8016385"><rect x=".01" y=".01" width="95.61" height="94.06"/><line x1="19.75" y1="74.9" x2="19.76" y2="38.95" style="fill:none; stroke:#fff; stroke-linecap:round; stroke-linejoin:round; stroke-width:1.44px;"/><line x1="47.83" y1="55.17" x2="47.83" y2="74.91" style="fill:none; stroke:#fff; stroke-linecap:round; stroke-linejoin:round; stroke-width:1.44px;"/><line x1="28.45" y1="56.07" x2="25.32" y2="54.26" style="fill:none; stroke:#fff; stroke-linecap:round; stroke-linejoin:round; stroke-width:1.44px;"/><line x1="25.33" y1="48.34" x2="25.32" y2="54.26" style="fill:none; stroke:#fff; stroke-linecap:round; stroke-linejoin:round; stroke-width:1.44px;"/><line x1="34.71" y1="59.69" x2="31.58" y2="57.88" style="fill:none; stroke:#fff; stroke-linecap:round; stroke-linejoin:round; stroke-width:1.44px;"/><line x1="31.58" y1="51.95" x2="31.58" y2="57.88" style="fill:none; stroke:#fff; stroke-linecap:round; stroke-linejoin:round; stroke-width:1.44px;"/><line x1="40.97" y1="63.3" x2="37.84" y2="61.49" style="fill:none; stroke:#fff; stroke-linecap:round; stroke-linejoin:round; stroke-width:1.44px;"/><line x1="37.84" y1="55.57" x2="37.84" y2="61.49" style="fill:none; stroke:#fff; stroke-linecap:round; stroke-linejoin:round; stroke-width:1.44px;"/><line x1="28.45" y1="67.68" x2="25.32" y2="65.87" style="fill:none; stroke:#fff; stroke-linecap:round; stroke-linejoin:round; stroke-width:1.44px;"/><line x1="25.32" y1="59.94" x2="25.32" y2="65.87" style="fill:none; stroke:#fff; stroke-linecap:round; stroke-linejoin:round; stroke-width:1.44px;"/><line x1="34.71" y1="71.29" x2="31.58" y2="69.48" style="fill:none; stroke:#fff; stroke-linecap:round; stroke-linejoin:round; stroke-width:1.44px;"/><line x1="31.58" y1="63.56" x2="31.58" y2="69.48" style="fill:none; stroke:#fff; stroke-linecap:round; stroke-linejoin:round; stroke-width:1.44px;"/><line x1="40.97" y1="74.91" x2="37.84" y2="73.1" style="fill:none; stroke:#fff; stroke-linecap:round; stroke-linejoin:round; stroke-width:1.44px;"/><line x1="37.84" y1="67.17" x2="37.84" y2="73.1" style="fill:none; stroke:#fff; stroke-linecap:round; stroke-linejoin:round; stroke-width:1.44px;"/><line x1="25.32" y1="71.55" x2="25.32" y2="74.9" style="fill:none; stroke:#fff; stroke-linecap:round; stroke-linejoin:round; stroke-width:1.44px;"/><line x1="67.21" y1="56.08" x2="70.34" y2="54.28" style="fill:none; stroke:#fff; stroke-linecap:round; stroke-linejoin:round; stroke-width:1.44px;"/><line x1="70.35" y1="48.35" x2="70.34" y2="54.28" style="fill:none; stroke:#fff; stroke-linecap:round; stroke-linejoin:round; stroke-width:1.44px;"/><line x1="60.95" y1="59.69" x2="64.08" y2="57.89" style="fill:none; stroke:#fff; stroke-linecap:round; stroke-linejoin:round; stroke-width:1.44px;"/><line x1="64.09" y1="51.96" x2="64.08" y2="57.89" style="fill:none; stroke:#fff; stroke-linecap:round; stroke-linejoin:round; stroke-width:1.44px;"/><line x1="54.69" y1="63.3" x2="57.82" y2="61.5" style="fill:none; stroke:#fff; stroke-linecap:round; stroke-linejoin:round; stroke-width:1.44px;"/><line x1="57.83" y1="55.57" x2="57.82" y2="61.5" style="fill:none; stroke:#fff; stroke-linecap:round; stroke-linejoin:round; stroke-width:1.44px;"/><line x1="67.21" y1="67.69" x2="70.34" y2="65.88" style="fill:none; stroke:#fff; stroke-linecap:round; stroke-linejoin:round; stroke-width:1.44px;"/><line x1="70.34" y1="59.96" x2="70.34" y2="65.88" style="fill:none; stroke:#fff; stroke-linecap:round; stroke-linejoin:round; stroke-width:1.44px;"/><line x1="60.95" y1="71.3" x2="64.08" y2="69.49" style="fill:none; stroke:#fff; stroke-linecap:round; stroke-linejoin:round; stroke-width:1.44px;"/><line x1="64.08" y1="63.57" x2="64.08" y2="69.49" style="fill:none; stroke:#fff; stroke-linecap:round; stroke-linejoin:round; stroke-width:1.44px;"/><line x1="54.69" y1="74.91" x2="57.82" y2="73.1" style="fill:none; stroke:#fff; stroke-linecap:round; stroke-linejoin:round; stroke-width:1.44px;"/><line x1="57.82" y1="67.18" x2="57.82" y2="73.1" style="fill:none; stroke:#fff; stroke-linecap:round; stroke-linejoin:round; stroke-width:1.44px;"/><line x1="70.34" y1="71.56" x2="70.34" y2="74.91" style="fill:none; stroke:#fff; stroke-linecap:round; stroke-linejoin:round; stroke-width:1.44px;"/><path d="M45.58,32.06c-.45-.32-1.09-.37-1.8-.11-1.84.68-3.06,3-3.08,4.78,0,1,.46,1.82,1.16,2.33" style="fill:none; stroke:#fff; stroke-linecap:round; stroke-linejoin:round; stroke-width:1.44px;"/><line x1="45.58" y1="32.06" x2="57.55" y2="38.98" style="fill:none; stroke:#fff; stroke-linecap:round; stroke-linejoin:round; stroke-width:1.44px;"/><line x1="41.88" y1="39.08" x2="53.85" y2="46.02" style="fill:none; stroke:#fff; stroke-linecap:round; stroke-linejoin:round; stroke-width:1.44px;"/><path d="M75.92,35.29s-18.46,10.73-18.92,10.91c-2.07.84-4.44-.27-4.33-2.55.09-1.78,1.23-4.11,3.08-4.78,1.33-.49,2.44.12,2.44,1.54,0,1.14-.8,2.52-1.78,3.09-.39.23-.75.25-1.01.1" style="fill:none; stroke:#fff; stroke-linecap:round; stroke-linejoin:round; stroke-width:1.44px;"/><line x1="32.93" y1="46.46" x2="40.48" y2="42.07" style="fill:none; stroke:#fff; stroke-linecap:round; stroke-linejoin:round; stroke-width:1.44px;"/><line x1="75.92" y1="35.29" x2="75.91" y2="74.92" style="fill:none; stroke:#fff; stroke-linecap:round; stroke-linejoin:round; stroke-width:1.44px;"/><line x1="60.77" y1="26.54" x2="75.92" y2="35.29" style="fill:none; stroke:#fff; stroke-linecap:round; stroke-linejoin:round; stroke-width:1.44px;"/><polyline points="32.93 46.46 32.93 42.78 19.76 35.27 47.84 19.07 60.77 26.54" style="fill:none; stroke:#fff; stroke-linecap:round; stroke-linejoin:round; stroke-width:1.44px;"/><line x1="32.93" y1="42.78" x2="38.68" y2="39.43" style="fill:none; stroke:#fff; stroke-linecap:round; stroke-linejoin:round; stroke-width:1.44px;"/><line x1="51.04" y1="32.22" x2="60.77" y2="26.54" style="fill:none; stroke:#fff; stroke-linecap:round; stroke-linejoin:round; stroke-width:1.44px;"/></g></svg>