<?xml version="1.0" encoding="UTF-8"?><svg id="uuid-d3a76b16-b5a8-4d88-8b94-95e95ba932de" xmlns="http://www.w3.org/2000/svg" viewBox="0 0 95.64 94.09"><g id="uuid-e45aa9cd-b19f-4647-809e-3d1f76448a8e"><rect x=".01" y=".01" width="95.61" height="94.06"/><line x1="62.26" y1="32.85" x2="55.65" y2="32.85" style="fill:none; stroke:#fff; stroke-linecap:round; stroke-linejoin:round; stroke-width:1.73px;"/><line x1="33.43" y1="32.84" x2="35.87" y2="32.85" style="fill:none; stroke:#fff; stroke-linecap:round; stroke-linejoin:round; stroke-width:1.73px;"/><polyline points="62.26 32.85 43.03 69.48 47.26 69.48 62.26 40.91 77.24 69.49 81.48 69.49 62.26 32.85" style="fill:none; stroke:#fff; stroke-linecap:round; stroke-linejoin:round; stroke-width:1.73px;"/><line x1="33.43" y1="32.84" x2="14.2" y2="69.47" style="fill:none; stroke:#fff; stroke-linecap:round; stroke-linejoin:round; stroke-width:1.73px;"/><line x1="78.63" y1="69.49" x2="47.26" y2="69.48" style="fill:none; stroke:#fff; stroke-linecap:round; stroke-linejoin:round; stroke-width:1.73px;"/><line x1="14.2" y1="69.47" x2="43.03" y2="69.48" style="fill:none; stroke:#fff; stroke-linecap:round; stroke-linejoin:round; stroke-width:1.73px;"/><polyline points="40.31 29.51 40.31 44.16 49.09 44.16 49.09 29.51 52.85 29.51 52.85 37.12" style="fill:none; stroke:#fff; stroke-linecap:round; stroke-linejoin:round; stroke-width:1.73px;"/><rect x="38.18" y="24.54" width="10.91" height="4.97" style="fill:none; stroke:#fff; stroke-linecap:round; stroke-linejoin:round; stroke-width:1.73px;"/><rect x="49.09" y="24.54" width="5.38" height="4.97" style="fill:none; stroke:#fff; stroke-linecap:round; stroke-linejoin:round; stroke-width:1.73px;"/><path d="M65.82,62.64c0-2.2-1.78-3.98-3.98-3.98-2.2,0-3.98,1.78-3.98,3.98v2.33s7.96,0,7.96,0v-2.33Z" style="fill:none; stroke:#fff; stroke-linecap:round; stroke-linejoin:round; stroke-width:1.73px;"/></g></svg>