<?xml version="1.0" encoding="UTF-8"?><svg id="uuid-7b9c2c8f-3ec0-4c3a-b53e-5d24e679fc87" xmlns="http://www.w3.org/2000/svg" viewBox="0 0 95.64 94.09"><g id="uuid-a8770cb4-bf59-49dd-9a02-456c257b46dc"><rect x=".01" y=".01" width="95.61" height="94.06"/><polyline points="19.76 75.06 27.85 75.06 27.86 23.09" style="fill:none; stroke:#fff; stroke-linecap:round; stroke-linejoin:round; stroke-width:1.44px;"/><line x1="19.76" y1="75.06" x2="19.77" y2="23.09" style="fill:none; stroke:#fff; stroke-linecap:round; stroke-linejoin:round; stroke-width:1.44px;"/><polyline points="35.82 70.87 31.77 70.87 27.85 75.06" style="fill:none; stroke:#fff; stroke-linecap:round; stroke-linejoin:round; stroke-width:1.44px;"/><line x1="31.77" y1="70.87" x2="31.79" y2="18.91" style="fill:none; stroke:#fff; stroke-linecap:round; stroke-linejoin:round; stroke-width:1.44px;"/><polyline points="35.82 70.87 39.87 70.88 43.79 75.07" style="fill:none; stroke:#fff; stroke-linecap:round; stroke-linejoin:round; stroke-width:1.44px;"/><polyline points="43.79 75.07 51.88 75.07 51.89 23.1" style="fill:none; stroke:#fff; stroke-linecap:round; stroke-linejoin:round; stroke-width:1.44px;"/><line x1="39.87" y1="70.88" x2="39.88" y2="18.91" style="fill:none; stroke:#fff; stroke-linecap:round; stroke-linejoin:round; stroke-width:1.44px;"/><line x1="43.79" y1="75.07" x2="43.8" y2="23.1" style="fill:none; stroke:#fff; stroke-linecap:round; stroke-linejoin:round; stroke-width:1.44px;"/><polyline points="59.85 70.88 55.8 70.88 51.88 75.07" style="fill:none; stroke:#fff; stroke-linecap:round; stroke-linejoin:round; stroke-width:1.44px;"/><line x1="55.8" y1="70.88" x2="55.82" y2="18.91" style="fill:none; stroke:#fff; stroke-linecap:round; stroke-linejoin:round; stroke-width:1.44px;"/><polyline points="59.85 70.88 63.9 70.88 67.82 75.07" style="fill:none; stroke:#fff; stroke-linecap:round; stroke-linejoin:round; stroke-width:1.44px;"/><polyline points="67.82 75.07 75.91 75.07 75.93 23.11" style="fill:none; stroke:#fff; stroke-linecap:round; stroke-linejoin:round; stroke-width:1.44px;"/><line x1="63.9" y1="70.88" x2="63.91" y2="18.91" style="fill:none; stroke:#fff; stroke-linecap:round; stroke-linejoin:round; stroke-width:1.44px;"/><line x1="67.82" y1="75.07" x2="67.83" y2="23.1" style="fill:none; stroke:#fff; stroke-linecap:round; stroke-linejoin:round; stroke-width:1.44px;"/><line x1="19.77" y1="23.09" x2="27.86" y2="23.09" style="fill:none; stroke:#fff; stroke-linecap:round; stroke-linejoin:round; stroke-width:1.44px;"/><polyline points="35.83 18.91 31.79 18.91 27.86 23.09" style="fill:none; stroke:#fff; stroke-linecap:round; stroke-linejoin:round; stroke-width:1.44px;"/><polyline points="35.83 18.91 39.88 18.91 43.8 23.1" style="fill:none; stroke:#fff; stroke-linecap:round; stroke-linejoin:round; stroke-width:1.44px;"/><line x1="43.8" y1="23.1" x2="51.89" y2="23.1" style="fill:none; stroke:#fff; stroke-linecap:round; stroke-linejoin:round; stroke-width:1.44px;"/><polyline points="59.87 18.91 55.82 18.91 51.89 23.1" style="fill:none; stroke:#fff; stroke-linecap:round; stroke-linejoin:round; stroke-width:1.44px;"/><polyline points="59.87 18.91 63.91 18.91 67.83 23.1" style="fill:none; stroke:#fff; stroke-linecap:round; stroke-linejoin:round; stroke-width:1.44px;"/><line x1="67.83" y1="23.1" x2="75.93" y2="23.11" style="fill:none; stroke:#fff; stroke-linecap:round; stroke-linejoin:round; stroke-width:1.44px;"/></g></svg>