<?xml version="1.0" encoding="UTF-8"?><svg id="uuid-dcb255c9-3d3f-49f0-bb81-c0299b65aea1" xmlns="http://www.w3.org/2000/svg" viewBox="0 0 95.64 94.09"><g id="uuid-e8b172c3-1107-4597-a80b-a1d23644d81e"><rect x=".01" y=".01" width="95.61" height="94.06"/><polygon points="47.86 13.91 14.76 40.64 18.55 45.08 47.85 21.59 77.15 45.09 80.94 40.66 47.86 13.91" style="fill:none; stroke:#fff; stroke-linecap:round; stroke-linejoin:round; stroke-width:1.7px;"/><polyline points="70.18 31.96 70.19 21.73 64.12 21.73 64.12 27.06" style="fill:none; stroke:#fff; stroke-linecap:round; stroke-linejoin:round; stroke-width:1.7px;"/><line x1="47.85" y1="31.69" x2="47.85" y2="40.3" style="fill:none; stroke:#fff; stroke-linecap:round; stroke-linejoin:round; stroke-width:1.7px;"/><rect x="43.11" y="31.69" width="9.47" height="8.61" style="fill:none; stroke:#fff; stroke-linecap:round; stroke-linejoin:round; stroke-width:1.7px;"/><path d="M47.87,71.72l7.29,7.3c1.45,1.45,3.8,1.45,5.25,0s1.45-3.8,0-5.25l-7.29-7.3" style="fill:none; stroke:#fff; stroke-linecap:round; stroke-linejoin:round; stroke-width:1.7px;"/><path d="M48.69,62.04l-8.28-8.28c.82-2.74.14-5.51-1.82-7.47-2.12-2.12-5.17-2.75-8.08-1.64l4.95,4.95-4.46,4.46-4.95-4.95c-1.11,2.91-.48,5.96,1.64,8.08,1.97,1.97,4.73,2.65,7.47,1.83l8.28,8.28" style="fill:none; stroke:#fff; stroke-linecap:round; stroke-linejoin:round; stroke-width:1.7px;"/><path d="M66.01,48.94l7.53,7.54c.21.21.17.58-.08.84l-5.02,5.02c-.25.25-.63.29-.84.08l-7.66-7.67c-.17-.17-.33-.36-.48-.56l-5.65-8.95c-.59-.82.61-2.08,1.47-1.55l9.86,4.58c.32.19.61.42.87.68Z" style="fill:none; stroke:#fff; stroke-linecap:round; stroke-linejoin:round; stroke-width:1.7px;"/><path d="M58.33,52.4l-22.97,22.96c-.42.42-.42,1.11,0,1.53l2.9,2.9c.42.42,1.11.42,1.53,0l22.61-22.6" style="fill:none; stroke:#fff; stroke-linecap:round; stroke-linejoin:round; stroke-width:1.7px;"/></g></svg>